{"title":"Kesha My Crazy Beautiful Life (2013) Seasons 1-2 Complete 480p","uid":12019553,"size":2258815507,"categoryP":"video","categoryS":"tv_shows","magnet":"?xt=urn:btih:6cb9217ed25a7b5c03949fbb09ae0d50b7928d1e&amp;dn=Kesha+My+Crazy+Beautiful+Life+%282013%29+Seasons+1-2+Complete+480p&amp;tr=udp%3A%2F%2Ftracker.openbittorrent.com%3A80&amp;tr=udp%3A%2F%2Fopen.demonii.com%3A1337&amp;tr=udp%3A%2F%2Ftracker.coppersurfer.tk%3A6969&amp;tr=udp%3A%2F%2Fexodus.desync.com%3A6969","seeders":0,"leechers":0,"uploader":"CowboyUncensored","files":15,"time":1434395872,"description":"Kesha My Crazy Beautiful Life (2013) Seasons 1-2 Complete 480p MKV x264\n\nBest quality I could find for each episode that was still seeded, most torrents are dead now.\nAll rolled into one torrent for your downloading ease.\n\n!Reseed requests are always welcome! Message me, because it doesn't tell me when you leave a comment.\n\nMediaInfo's output:\nComplete name                            : C:Kesha My Crazy Beautiful Life (2013)Kesha My Crazy Beautiful Life 1x06 Ringing In The New -2HD.mp4\nFormat                                   : MPEG-4\nFormat profile                           : Base Media\nCodec ID                                 : isom\nFile size                                : 222 MiB\nDuration                                 : 20mn 37s\nOverall bit rate mode                    : Variable\nOverall bit rate                         : 1 508 Kbps\nEncoded date                             : UTC 2013-05-29 03:45:08\nTagged date                              : UTC 2013-05-29 03:45:08\n\nVideo\nID                                       : 1\nFormat                                   : AVC\nFormat/Info                              : Advanced Video Codec\nFormat profile                           : &lt;a class=&quot;__cf_email__&quot; href=&quot;/cdn-cgi/l/email-protection&quot; data-cfemail=&quot;632b0a040b232f504d52&quot;&gt;[email&amp;#160;protected]&lt;/a&gt;&lt;script data-cfhash='f9e31' type=&quot;text/javascript&quot;&gt;\n/* &lt;![CDATA[ */!function(){try{var t=&quot;currentScript&quot;in document?document.currentScript:function(){for(var t=document.getElementsByTagName(&quot;script&quot;),e=t.length;e--;)if(t[e].getAttribute(&quot;data-cfhash&quot;))return t[e]}();if(t&amp;&amp;t.previousSibling){var e,r,n,i,c=t.previousSibling,a=c.getAttribute(&quot;data-cfemail&quot;);if(a){for(e=&quot;&quot;,r=parseInt(a.substr(0,2),16),n=2;a.length-n;n+=2)i=parseInt(a.substr(n,2),16)^r,e+=String.fromCharCode(i);e=document.createTextNode(e),c.parentNode.replaceChild(e,c)}t.parentNode.removeChild(t);}}catch(u){}}()/* ]]&gt; */&lt;/script&gt;\nFormat settings, CABAC                   : Yes\nFormat settings, ReFrames                : 5 frames\nCodec ID                                 : avc1\nCodec ID/Info                            : Advanced Video Coding\nDuration                                 : 20mn 37s\nBit rate                                 : 1 362 Kbps\nMaximum bit rate                         : 8 388 Kbps\nWidth                                    : 720 pixels\nHeight                                   : 404 pixels\nDisplay aspect ratio                     : 16:9\nFrame rate mode                          : Constant\nFrame rate                               : 23.976 fps\nColor space                              : YUV\nChroma subsampling                       : 4:2:0\nBit depth                                : 8 bits\nScan type                                : Progressive\nBits/(Pixel*Frame)                       : 0.195\nStream size                              : 201 MiB (90%)\nWriting library                          : x264 core 133 r2334 a3ac64b\nEncoding settings                        : cabac=1 / ref=5 / deblock=1:0:0 / analyse=0x3:0x113 / me=umh / subme=8 / psy=1 / psy_rd=1.00:0.00 / mixed_ref=1 / me_range=16 / chroma_me=1 / trellis=1 / 8x8dct=1 / cqm=0 / deadzone=21,11 / fast_pskip=1 / chroma_qp_offset=-2 / threads=6 / lookahead_threads=1 / sliced_threads=0 / nr=0 / decimate=1 / interlaced=0 / bluray_compat=0 / constrained_intra=0 / bframes=3 / b_pyramid=2 / b_adapt=2 / b_bias=0 / direct=3 / weightb=1 / open_gop=0 / weightp=2 / keyint=250 / keyint_min=23 / scenecut=40 / intra_refresh=0 / rc_lookahead=50 / rc=crf / mbtree=1 / crf=21.0 / qcomp=0.60 / qpmin=0 / qpmax=69 / qpstep=4 / ip_ratio=1.40 / aq=1:1.00\nEncoded date                             : UTC 2013-05-29 03:45:08\nTagged date                              : UTC 2013-05-29 03:45:10\nMatrix coefficients                      : BT.709-5, BT.1361, IEC 61966-2-4 709, SMPTE RP177\n\nAudio\nID                                       : 2\nFormat                                   : AAC\nFormat/Info                              : Advanced Audio Codec\nFormat profile                           : LC\nCodec ID                                 : 40\nDuration                                 : 20mn 37s\nBit rate mode                            : Variable\nBit rate                                 : 144 Kbps\nMaximum bit rate                         : 163 Kbps\nChannel(s)                               : 2 channels\nChannel positions                        : Front: L R\nSampling rate                            : 48.0 KHz\nCompression mode                         : Lossy\nStream size                              : 20.9 MiB (9%)\nEncoded date                             : UTC 2013-05-29 03:45:10\nTagged date                              : UTC 2013-05-29 03:45:10","torrent":{"xt":"urn:btih:6cb9217ed25a7b5c03949fbb09ae0d50b7928d1e","amp;dn":"Kesha+My+Crazy+Beautiful+Life+%282013%29+Seasons+1-2+Complete+480p","amp;tr":["udp%3A%2F%2Ftracker.openbittorrent.com%3A80","udp%3A%2F%2Fopen.demonii.com%3A1337","udp%3A%2F%2Ftracker.coppersurfer.tk%3A6969","udp%3A%2F%2Fexodus.desync.com%3A6969"],"infoHash":"6cb9217ed25a7b5c03949fbb09ae0d50b7928d1e","infoHashBuffer":{"type":"Buffer","data":[108,185,33,126,210,90,123,92,3,148,159,187,9,174,13,80,183,146,141,30]},"announce":[],"urlList":[]}}